<svg width="24" height="24" viewBox="0 0 24 24" fill="none" xmlns="http://www.w3.org/2000/svg">
<path d="M5.99594 8.74442H6.49594V8.24442V4.49696C6.49594 4.49777 6.49594 4.49776 6.49605 4.49697C6.4965 4.49356 6.49887 4.47563 6.51135 4.44568C6.52587 4.41083 6.54875 4.37286 6.57834 4.33904C6.63884 4.26989 6.69795 4.24746 6.74544 4.24746C6.79292 4.24746 6.85203 4.26989 6.91253 4.33904C6.94212 4.37286 6.965 4.41083 6.97952 4.44568C6.992 4.47563 6.99437 4.49356 6.99482 4.49697C6.99493 4.49776 6.99493 4.49777 6.99493 4.49696V9.44361C6.99493 10.5241 6.15011 11.375 5.18443 11.4957L4.74645 11.5505V11.9919V22.4848C4.74645 22.8209 4.63661 23.0621 4.48068 23.218C4.32474 23.3739 4.08354 23.4838 3.74746 23.4838C3.41139 23.4838 3.17019 23.3739 3.01425 23.218C2.85832 23.0621 2.74848 22.8209 2.74848 22.4848V11.9919V11.5505L2.3105 11.4957C1.34482 11.375 0.5 10.5241 0.5 9.44361V4.49696C0.5 4.49777 0.500001 4.49776 0.500106 4.49697C0.500557 4.49356 0.50293 4.47563 0.515408 4.44568C0.529928 4.41083 0.552808 4.37286 0.582399 4.33904C0.642901 4.26989 0.702009 4.24746 0.749493 4.24746C0.860717 4.24746 0.91455 4.28236 0.939322 4.30713C0.964094 4.3319 0.998986 4.38573 0.998986 4.49696V8.24442V8.74442H1.49899H2.99797H3.49797V8.24442V4.49696C3.49797 4.49777 3.49797 4.49776 3.49808 4.49697C3.49853 4.49356 3.5009 4.47563 3.51338 4.44568C3.5279 4.41083 3.55078 4.37286 3.58037 4.33904C3.64087 4.26989 3.69998 4.24746 3.74746 4.24746C3.85869 4.24746 3.91252 4.28236 3.93729 4.30713C3.96206 4.3319 3.99696 4.38573 3.99696 4.49696V8.24442V8.74442H4.49696H5.99594ZM11.7424 13.4909V12.9909H11.2424H10.2434V4.49696C10.2434 2.39471 11.7199 0.760995 13.7404 0.528437V22.4848C13.7404 22.8209 13.6305 23.0621 13.4746 23.218C13.3187 23.3739 13.0775 23.4838 12.7414 23.4838C12.4053 23.4838 12.1641 23.3739 12.0082 23.218C11.8522 23.0621 11.7424 22.8209 11.7424 22.4848V13.4909ZM16.9871 7.98615L16.9888 7.96542V7.94462C16.9888 6.69342 17.3719 5.56443 17.9756 4.75948C18.5786 3.95553 19.3789 3.49797 20.2363 3.49797C21.0937 3.49797 21.894 3.95553 22.497 4.75948C23.1007 5.56443 23.4838 6.69342 23.4838 7.94462V7.96542L23.4855 7.98615C23.6185 9.58171 22.8244 11.0689 21.4486 12.032L21.2353 12.1813V12.4416V22.4848C21.2353 22.8209 21.1255 23.0621 20.9695 23.218C20.8136 23.3739 20.5724 23.4838 20.2363 23.4838C19.9002 23.4838 19.659 23.3739 19.5031 23.218C19.3472 23.0621 19.2373 22.8209 19.2373 22.4848V12.4416V12.1813L19.0241 12.032C17.6482 11.0689 16.8542 9.58171 16.9871 7.98615Z" stroke="#023047"/>
</svg>
