<svg width="24" height="26" viewBox="0 0 24 26" fill="none" xmlns="http://www.w3.org/2000/svg">
<path fill-rule="evenodd" clip-rule="evenodd" d="M15.4286 6.4C15.4286 7.36993 15.0673 8.30014 14.4244 8.98599C13.7814 9.67184 12.9093 10.0571 12 10.0571C11.0907 10.0571 10.2186 9.67184 9.57563 8.98599C8.93265 8.30014 8.57143 7.36993 8.57143 6.4C8.57143 5.43007 8.93265 4.49986 9.57563 3.81401C10.2186 3.12816 11.0907 2.74286 12 2.74286C12.9093 2.74286 13.7814 3.12816 14.4244 3.81401C15.0673 4.49986 15.4286 5.43007 15.4286 6.4ZM18 6.4C18 8.09739 17.3679 9.72525 16.2426 10.9255C15.1174 12.1257 13.5913 12.8 12 12.8C10.4087 12.8 8.88258 12.1257 7.75736 10.9255C6.63214 9.72525 6 8.09739 6 6.4C6 4.70261 6.63214 3.07475 7.75736 1.87452C8.88258 0.674284 10.4087 0 12 0C13.5913 0 15.1174 0.674284 16.2426 1.87452C17.3679 3.07475 18 4.70261 18 6.4ZM2.57143 21.0286C2.57143 20.6555 2.94857 19.5493 4.83429 18.3607C6.57943 17.2617 9.12 16.4571 12 16.4571C14.88 16.4571 17.4206 17.2617 19.1657 18.3607C21.0514 19.5493 21.4286 20.6555 21.4286 21.0286C21.4286 21.5135 21.248 21.9786 20.9265 22.3216C20.605 22.6645 20.1689 22.8571 19.7143 22.8571H4.28571C3.83106 22.8571 3.39502 22.6645 3.07353 22.3216C2.75204 21.9786 2.57143 21.5135 2.57143 21.0286ZM12 13.7143C5.4 13.7143 0 17.3714 0 21.0286C0 22.241 0.451529 23.4038 1.25526 24.2611C2.05898 25.1184 3.14907 25.6 4.28571 25.6H19.7143C20.8509 25.6 21.941 25.1184 22.7447 24.2611C23.5485 23.4038 24 22.241 24 21.0286C24 17.3714 18.6 13.7143 12 13.7143Z" fill="#8ECAE6"/>
</svg>
