<svg width="26" height="22" viewBox="0 0 26 22" fill="none" xmlns="http://www.w3.org/2000/svg">
<path d="M23.8 1H2.2C1.53726 1 1 1.5329 1 2.19026V11.7124C1 12.3697 1.53726 12.9026 2.2 12.9026H23.8C24.4627 12.9026 25 12.3697 25 11.7124V2.19026C25 1.5329 24.4627 1 23.8 1Z" stroke="#8ECAE6" stroke-width="2" stroke-linecap="round" stroke-linejoin="round"/>
<path d="M17.8 4.5708H20.2M13 16.4734V20.0442M8.19999 17.6637V18.854M17.8 17.6637V18.854M5.79999 8.14159H20.2V12.9026H5.79999V8.14159Z" stroke="#8ECAE6" stroke-width="2" stroke-linecap="round" stroke-linejoin="round"/>
<path d="M23.8 1H2.2C1.53726 1 1 1.5329 1 2.19026V11.7124C1 12.3697 1.53726 12.9026 2.2 12.9026H23.8C24.4627 12.9026 25 12.3697 25 11.7124V2.19026C25 1.5329 24.4627 1 23.8 1Z" stroke="#8ECAE6" stroke-width="2" stroke-linecap="round" stroke-linejoin="round"/>
<path d="M17.8 4.5708H20.2M13 16.4734V20.0442M8.19999 17.6637V18.854M17.8 17.6637V18.854M5.79999 8.14159H20.2V12.9026H5.79999V8.14159Z" stroke="#8ECAE6" stroke-width="2" stroke-linecap="round" stroke-linejoin="round"/>
</svg>
