<svg width="42" height="42" viewBox="0 0 42 42" fill="none" xmlns="http://www.w3.org/2000/svg">
<path d="M21 0.6875C16.9826 0.6875 13.0554 1.87881 9.71499 4.11077C6.37462 6.34274 3.77111 9.51512 2.23371 13.2267C0.696301 16.9384 0.294046 21.0225 1.07781 24.9628C1.86157 28.903 3.79615 32.5224 6.6369 35.3631C9.47766 38.2039 13.097 40.1384 17.0372 40.9222C20.9775 41.706 25.0616 41.3037 28.7733 39.7663C32.4849 38.2289 35.6573 35.6254 37.8892 32.285C40.1212 28.9446 41.3125 25.0174 41.3125 21C41.3068 15.6145 39.1649 10.4513 35.3568 6.64317C31.5487 2.83507 26.3855 0.693187 21 0.6875ZM21 38.1875C17.6006 38.1875 14.2776 37.1795 11.4511 35.2909C8.62468 33.4023 6.42171 30.718 5.12083 27.5774C3.81995 24.4368 3.47958 20.9809 4.14276 17.6469C4.80595 14.3128 6.4429 11.2503 8.84661 8.8466C11.2503 6.44289 14.3128 4.80594 17.6469 4.14275C20.9809 3.47957 24.4368 3.81994 27.5774 5.12082C30.718 6.4217 33.4023 8.62467 35.2909 11.4511C37.1795 14.2776 38.1875 17.6006 38.1875 21C38.1823 25.5568 36.3699 29.9255 33.1477 33.1477C29.9255 36.3699 25.5568 38.1823 21 38.1875ZM33.5 21C33.5 21.4144 33.3354 21.8118 33.0424 22.1049C32.7493 22.3979 32.3519 22.5625 31.9375 22.5625H21C20.5856 22.5625 20.1882 22.3979 19.8952 22.1049C19.6021 21.8118 19.4375 21.4144 19.4375 21V10.0625C19.4375 9.6481 19.6021 9.25067 19.8952 8.95765C20.1882 8.66462 20.5856 8.5 21 8.5C21.4144 8.5 21.8118 8.66462 22.1049 8.95765C22.3979 9.25067 22.5625 9.6481 22.5625 10.0625V19.4375H31.9375C32.3519 19.4375 32.7493 19.6021 33.0424 19.8951C33.3354 20.1882 33.5 20.5856 33.5 21Z" fill="#023047"/>
</svg>
