<svg width="18" height="24" viewBox="0 0 18 24" fill="none" xmlns="http://www.w3.org/2000/svg">
<path d="M5 0C4.76131 5.03012e-09 4.53239 0.094821 4.3636 0.263604C4.19482 0.432387 4.1 0.661305 4.1 0.9C4.1 1.13869 4.19482 1.36761 4.3636 1.5364C4.53239 1.70518 4.76131 1.8 5 1.8H5.3V3.6H4.4C3.36566 3.6 2.37368 4.01089 1.64228 4.74228C0.910892 5.47368 0.5 6.46566 0.5 7.5V18.3C0.5 19.07 0.727908 19.8227 1.155 20.4633C1.5821 21.104 2.18927 21.6039 2.9 21.9V23.1C2.9 23.3387 2.99482 23.5676 3.1636 23.7364C3.33239 23.9052 3.56131 24 3.8 24C4.03869 24 4.26761 23.9052 4.4364 23.7364C4.60518 23.5676 4.7 23.3387 4.7 23.1V22.2H13.1V23.1C13.1 23.3387 13.1948 23.5676 13.3636 23.7364C13.5324 23.9052 13.7613 24 14 24C14.2387 24 14.4676 23.9052 14.6364 23.7364C14.8052 23.5676 14.9 23.3387 14.9 23.1V21.9C15.6107 21.6039 16.2179 21.104 16.645 20.4633C17.0721 19.8227 17.3 19.07 17.3 18.3V7.5C17.3 6.46566 16.8891 5.47368 16.1577 4.74228C15.4263 4.01089 14.4343 3.6 13.4 3.6H12.5V1.8H12.8C13.0387 1.8 13.2676 1.70518 13.4364 1.5364C13.6052 1.36761 13.7 1.13869 13.7 0.9C13.7 0.661305 13.6052 0.432387 13.4364 0.263604C13.2676 0.094821 13.0387 5.03012e-09 12.8 0H5ZM10.7 1.8V3.6H7.1V1.8H10.7ZM4.4 5.4H13.4C14.5592 5.4 15.5 6.3408 15.5 7.5V18.3C15.5 18.857 15.2788 19.3911 14.8849 19.7849C14.4911 20.1788 13.957 20.4 13.4 20.4H4.4C3.84305 20.4 3.3089 20.1788 2.91508 19.7849C2.52125 19.3911 2.3 18.857 2.3 18.3V7.5C2.3 6.3408 3.2408 5.4 4.4 5.4ZM4.1 9.3C4.1 9.06131 4.19482 8.83239 4.3636 8.6636C4.53239 8.49482 4.76131 8.4 5 8.4H12.8C13.0387 8.4 13.2676 8.49482 13.4364 8.6636C13.6052 8.83239 13.7 9.06131 13.7 9.3C13.7 9.53869 13.6052 9.76761 13.4364 9.9364C13.2676 10.1052 13.0387 10.2 12.8 10.2H5C4.76131 10.2 4.53239 10.1052 4.3636 9.9364C4.19482 9.76761 4.1 9.53869 4.1 9.3Z" fill="#023047"/>
</svg>
