<svg width="45" height="50" viewBox="0 0 45 50" fill="none" xmlns="http://www.w3.org/2000/svg">
<mask id="path-1-inside-1_138_590" fill="white">
<path fill-rule="evenodd" clip-rule="evenodd" d="M3.05256 48.2146V36.8328C3.34721 31.9857 8.23654 29.9737 10.8562 29.5613C10.9923 29.5147 11.1201 29.4687 11.2478 29.4227C11.2666 29.4159 11.2854 29.4091 11.3043 29.4023C10.5056 29.1351 9.77148 28.7042 9.14883 28.1372C8.52618 27.5701 8.0287 26.8794 7.6882 26.1091C7.2503 25.0752 7.07224 23.9498 7.16958 22.8312C7.26691 21.7125 7.63668 20.6348 8.24657 19.692L9.78002 17.2223C10.1604 15.9527 10.404 14.6461 10.5068 13.3247C9.69431 3.10069 20.7498 -3.75166 29.1499 2.22869C30.6714 3.31586 31.9112 4.75073 32.7661 6.41386C33.621 8.07699 34.0663 9.92028 34.0649 11.7903V15.1309C34.0637 15.8915 34.2765 16.6371 34.6791 17.2824L36.2159 19.7574C38.4162 23.1105 37.2239 27.9418 33.4248 29.3664L37.2574 30.862C37.5189 30.9884 41.9039 33.2341 41.4109 37.9216V48.2146H44.0428C44.2766 48.2192 44.4992 48.3152 44.6629 48.4821C44.8266 48.6491 44.9183 48.8735 44.9183 49.1073C44.9183 49.3411 44.8266 49.5656 44.6629 49.7325C44.4992 49.8994 44.2766 49.9954 44.0428 50L0.877101 49.9999C0.643074 49.9958 0.420023 49.9 0.255975 49.733C0.0919274 49.5661 4.68161e-06 49.3414 1.7882e-10 49.1073C-4.68125e-06 48.8732 0.0919089 48.6485 0.25595 48.4816C0.419991 48.3146 0.643038 48.2188 0.877065 48.2146H3.05256ZM34.1123 48.2146L35.2283 38.0254C35.2615 37.7484 35.235 37.4675 35.1504 37.2016C35.0659 36.9357 34.9254 36.6911 34.7384 36.4841C34.5512 36.2748 34.3219 36.1074 34.0655 35.9927C33.8092 35.8781 33.5315 35.8189 33.2507 35.8189H12.2018C11.9185 35.8201 11.6386 35.8816 11.3809 35.9993C11.1231 36.117 10.8934 36.2882 10.7069 36.5015C10.5204 36.7148 10.3815 36.9654 10.2993 37.2365C10.2171 37.5077 10.1936 37.7932 10.2303 38.0742L11.6387 48.2146H34.1123ZM29.6394 34.0335V32.619C25.3431 32.6342 18.1036 32.5997 14.8915 32.5844C14.7182 32.5836 14.5566 32.5828 14.4078 32.5821V34.0335H29.6394ZM14.4078 29.6673V30.7969C17.2805 30.8114 25.5738 30.8502 29.6394 30.8338V29.8038L29.4803 29.7418C27.4288 28.9521 25.7255 27.4579 24.6752 25.5269C24.2319 25.6059 23.7828 25.6482 23.3326 25.6531C22.1424 25.7078 20.9497 25.6542 19.7693 25.4927C17.9365 28.3569 16.6322 29.1304 14.4078 29.6673ZM39.6312 37.7743C40.0213 34.3029 36.6746 32.5637 36.5321 32.4913L31.4248 30.4999V34.0335L33.2507 34.0336C33.7805 34.0366 34.3037 34.1504 34.7868 34.3679C35.2698 34.5853 35.702 34.9015 36.0555 35.2961C36.4089 35.6907 36.6758 36.155 36.839 36.659C37.0022 37.163 37.058 37.6955 37.0029 38.2224L35.9084 48.2146L39.6255 48.2148C39.6236 48.0937 39.6252 37.8957 39.6312 37.7743ZM34.1569 19.8378C33.246 18.4197 32.1708 16.7458 32.2803 15.1415C32.2789 15.1396 32.2793 14.3006 32.2795 13.6814C32.2797 13.3198 32.2796 13.0317 32.2796 13.0317C31.9955 13.0613 31.7093 13.0641 31.4248 13.0401V17.5605C31.4231 19.0855 30.9908 20.579 30.1777 21.869C29.3646 23.1591 28.2037 24.1933 26.8286 24.8527C27.1586 25.8476 28.9497 27.9588 30.6258 28.027C34.7321 28.4338 36.8026 23.8705 34.7009 20.7015C34.5355 20.4272 34.3499 20.1382 34.1569 19.8378ZM27.453 3.2509C25.6227 2.14162 23.4851 1.64802 21.3536 1.84249C18.9747 2.11309 16.7669 3.21199 15.1167 4.94673C13.4665 6.68147 12.4792 8.94146 12.3278 11.3309C12.9113 11.2747 13.4842 11.209 14.0282 11.1234C22.4961 9.83446 26.0805 5.6062 27.453 3.2509ZM8.951 22.9556C8.87403 23.7833 9.00076 24.6172 9.32014 25.3847C11.2021 29.2237 15.9419 28.5798 18.0387 24.9165C16.6202 24.2797 15.416 23.2467 14.5708 21.9417C13.7256 20.6367 13.2754 19.1153 13.2745 17.5606V13.0239C12.9524 13.0631 12.6247 13.096 12.292 13.1259C12.292 13.1259 11.8884 17.2179 11.2956 18.1664L9.76169 20.6361C9.30629 21.3316 9.02796 22.1279 8.951 22.9556ZM12.6224 34.0335L12.6223 30.8151C12.3239 30.9967 11.7843 31.1356 11.1227 31.3058C8.90165 31.8775 5.30486 32.8032 4.8362 36.8877L4.83783 48.2147H9.83586L8.46152 38.3191C8.38769 37.7859 8.42901 37.243 8.58269 36.727C8.73637 36.2111 8.99884 35.7341 9.35242 35.3281C9.75895 34.8725 10.2663 34.5182 10.8341 34.2934C11.4018 34.0686 12.0142 33.9796 12.6224 34.0335ZM32.2531 11.2481C31.7108 11.2771 31.167 11.264 30.6266 11.2088C29.1361 11.0938 27.7095 10.5548 26.5154 9.6553C26.3398 9.5009 26.1106 9.42155 25.8771 9.43431C25.6436 9.44707 25.4244 9.55091 25.2666 9.72353C25.1089 9.89615 25.0251 10.1238 25.0333 10.3575C25.0416 10.5912 25.1412 10.8123 25.3107 10.9734C26.5664 11.9652 28.0578 12.6144 29.6394 12.8576C29.6394 12.8576 29.6255 17.6973 29.6232 17.7667V18.67L29.4589 19.25L29.0858 20.1029C28.5932 21.2193 27.7877 22.169 26.7666 22.8372C25.7456 23.5053 24.5528 23.8633 23.3326 23.8678L21.3763 23.8678C19.705 23.8603 18.1042 23.1936 16.9215 22.0127C15.7388 20.8317 15.0699 19.2318 15.06 17.5605L15.0599 12.748C23.5061 11.2443 27.337 6.90443 28.9013 4.31248C29.897 5.18431 30.7069 6.24773 31.2828 7.43931C31.8586 8.63089 32.1887 9.92624 32.2531 11.2481Z"/>
</mask>
<path fill-rule="evenodd" clip-rule="evenodd" d="M3.05256 48.2146V36.8328C3.34721 31.9857 8.23654 29.9737 10.8562 29.5613C10.9923 29.5147 11.1201 29.4687 11.2478 29.4227C11.2666 29.4159 11.2854 29.4091 11.3043 29.4023C10.5056 29.1351 9.77148 28.7042 9.14883 28.1372C8.52618 27.5701 8.0287 26.8794 7.6882 26.1091C7.2503 25.0752 7.07224 23.9498 7.16958 22.8312C7.26691 21.7125 7.63668 20.6348 8.24657 19.692L9.78002 17.2223C10.1604 15.9527 10.404 14.6461 10.5068 13.3247C9.69431 3.10069 20.7498 -3.75166 29.1499 2.22869C30.6714 3.31586 31.9112 4.75073 32.7661 6.41386C33.621 8.07699 34.0663 9.92028 34.0649 11.7903V15.1309C34.0637 15.8915 34.2765 16.6371 34.6791 17.2824L36.2159 19.7574C38.4162 23.1105 37.2239 27.9418 33.4248 29.3664L37.2574 30.862C37.5189 30.9884 41.9039 33.2341 41.4109 37.9216V48.2146H44.0428C44.2766 48.2192 44.4992 48.3152 44.6629 48.4821C44.8266 48.6491 44.9183 48.8735 44.9183 49.1073C44.9183 49.3411 44.8266 49.5656 44.6629 49.7325C44.4992 49.8994 44.2766 49.9954 44.0428 50L0.877101 49.9999C0.643074 49.9958 0.420023 49.9 0.255975 49.733C0.0919274 49.5661 4.68161e-06 49.3414 1.7882e-10 49.1073C-4.68125e-06 48.8732 0.0919089 48.6485 0.25595 48.4816C0.419991 48.3146 0.643038 48.2188 0.877065 48.2146H3.05256ZM34.1123 48.2146L35.2283 38.0254C35.2615 37.7484 35.235 37.4675 35.1504 37.2016C35.0659 36.9357 34.9254 36.6911 34.7384 36.4841C34.5512 36.2748 34.3219 36.1074 34.0655 35.9927C33.8092 35.8781 33.5315 35.8189 33.2507 35.8189H12.2018C11.9185 35.8201 11.6386 35.8816 11.3809 35.9993C11.1231 36.117 10.8934 36.2882 10.7069 36.5015C10.5204 36.7148 10.3815 36.9654 10.2993 37.2365C10.2171 37.5077 10.1936 37.7932 10.2303 38.0742L11.6387 48.2146H34.1123ZM29.6394 34.0335V32.619C25.3431 32.6342 18.1036 32.5997 14.8915 32.5844C14.7182 32.5836 14.5566 32.5828 14.4078 32.5821V34.0335H29.6394ZM14.4078 29.6673V30.7969C17.2805 30.8114 25.5738 30.8502 29.6394 30.8338V29.8038L29.4803 29.7418C27.4288 28.9521 25.7255 27.4579 24.6752 25.5269C24.2319 25.6059 23.7828 25.6482 23.3326 25.6531C22.1424 25.7078 20.9497 25.6542 19.7693 25.4927C17.9365 28.3569 16.6322 29.1304 14.4078 29.6673ZM39.6312 37.7743C40.0213 34.3029 36.6746 32.5637 36.5321 32.4913L31.4248 30.4999V34.0335L33.2507 34.0336C33.7805 34.0366 34.3037 34.1504 34.7868 34.3679C35.2698 34.5853 35.702 34.9015 36.0555 35.2961C36.4089 35.6907 36.6758 36.155 36.839 36.659C37.0022 37.163 37.058 37.6955 37.0029 38.2224L35.9084 48.2146L39.6255 48.2148C39.6236 48.0937 39.6252 37.8957 39.6312 37.7743ZM34.1569 19.8378C33.246 18.4197 32.1708 16.7458 32.2803 15.1415C32.2789 15.1396 32.2793 14.3006 32.2795 13.6814C32.2797 13.3198 32.2796 13.0317 32.2796 13.0317C31.9955 13.0613 31.7093 13.0641 31.4248 13.0401V17.5605C31.4231 19.0855 30.9908 20.579 30.1777 21.869C29.3646 23.1591 28.2037 24.1933 26.8286 24.8527C27.1586 25.8476 28.9497 27.9588 30.6258 28.027C34.7321 28.4338 36.8026 23.8705 34.7009 20.7015C34.5355 20.4272 34.3499 20.1382 34.1569 19.8378ZM27.453 3.2509C25.6227 2.14162 23.4851 1.64802 21.3536 1.84249C18.9747 2.11309 16.7669 3.21199 15.1167 4.94673C13.4665 6.68147 12.4792 8.94146 12.3278 11.3309C12.9113 11.2747 13.4842 11.209 14.0282 11.1234C22.4961 9.83446 26.0805 5.6062 27.453 3.2509ZM8.951 22.9556C8.87403 23.7833 9.00076 24.6172 9.32014 25.3847C11.2021 29.2237 15.9419 28.5798 18.0387 24.9165C16.6202 24.2797 15.416 23.2467 14.5708 21.9417C13.7256 20.6367 13.2754 19.1153 13.2745 17.5606V13.0239C12.9524 13.0631 12.6247 13.096 12.292 13.1259C12.292 13.1259 11.8884 17.2179 11.2956 18.1664L9.76169 20.6361C9.30629 21.3316 9.02796 22.1279 8.951 22.9556ZM12.6224 34.0335L12.6223 30.8151C12.3239 30.9967 11.7843 31.1356 11.1227 31.3058C8.90165 31.8775 5.30486 32.8032 4.8362 36.8877L4.83783 48.2147H9.83586L8.46152 38.3191C8.38769 37.7859 8.42901 37.243 8.58269 36.727C8.73637 36.2111 8.99884 35.7341 9.35242 35.3281C9.75895 34.8725 10.2663 34.5182 10.8341 34.2934C11.4018 34.0686 12.0142 33.9796 12.6224 34.0335ZM32.2531 11.2481C31.7108 11.2771 31.167 11.264 30.6266 11.2088C29.1361 11.0938 27.7095 10.5548 26.5154 9.6553C26.3398 9.5009 26.1106 9.42155 25.8771 9.43431C25.6436 9.44707 25.4244 9.55091 25.2666 9.72353C25.1089 9.89615 25.0251 10.1238 25.0333 10.3575C25.0416 10.5912 25.1412 10.8123 25.3107 10.9734C26.5664 11.9652 28.0578 12.6144 29.6394 12.8576C29.6394 12.8576 29.6255 17.6973 29.6232 17.7667V18.67L29.4589 19.25L29.0858 20.1029C28.5932 21.2193 27.7877 22.169 26.7666 22.8372C25.7456 23.5053 24.5528 23.8633 23.3326 23.8678L21.3763 23.8678C19.705 23.8603 18.1042 23.1936 16.9215 22.0127C15.7388 20.8317 15.0699 19.2318 15.06 17.5605L15.0599 12.748C23.5061 11.2443 27.337 6.90443 28.9013 4.31248C29.897 5.18431 30.7069 6.24773 31.2828 7.43931C31.8586 8.63089 32.1887 9.92624 32.2531 11.2481Z" fill="#023047"/>
<path d="M29.6232 18.67L30.79 17.0457L28.4568 15.3695L27.6948 18.1396L29.6232 18.67ZM28.4563 20.2943C28.4861 20.3157 28.5085 20.3318 28.5234 20.3425C28.5308 20.3479 28.5364 20.3519 28.5401 20.3546C28.542 20.3559 28.5434 20.3569 28.5443 20.3575C28.5447 20.3579 28.5451 20.3581 28.5453 20.3583C28.5454 20.3583 28.5454 20.3584 28.5454 20.3584C28.5454 20.3584 28.5454 20.3583 28.5454 20.3583C28.5453 20.3583 28.5453 20.3583 28.5452 20.3582C28.5452 20.3582 28.545 20.3581 28.5448 20.3579C28.5446 20.3578 28.5441 20.3574 28.5438 20.3572C28.5428 20.3565 27.932 19.6449 27.7126 18.7343C28.7977 16.9558 30.8766 17.1079 30.8776 17.1086C30.8779 17.1088 30.8784 17.1092 30.8786 17.1093C30.8788 17.1095 30.879 17.1096 30.879 17.1096C30.8791 17.1097 30.8791 17.1097 30.8792 17.1097C30.8792 17.1097 30.8792 17.1098 30.8792 17.1098C30.8792 17.1098 30.8792 17.1097 30.8791 17.1097C30.8789 17.1095 30.8785 17.1093 30.8781 17.1089C30.8772 17.1083 30.8758 17.1073 30.8739 17.106C30.8702 17.1033 30.8646 17.0993 30.8572 17.0939C30.8423 17.0832 30.8199 17.0671 30.7901 17.0457L28.4562 20.2943C28.4861 20.3157 28.5085 20.3318 28.5234 20.3425C28.5308 20.3479 28.5364 20.3519 28.5402 20.3546C28.542 20.3559 28.5435 20.3569 28.5444 20.3576C28.5449 20.358 28.5452 20.3582 28.5455 20.3584C28.5456 20.3585 28.5458 20.3586 28.5459 20.3587C28.5459 20.3587 28.5461 20.3588 28.5462 20.3589C28.5463 20.359 28.5465 20.3591 28.5467 20.3593C28.5469 20.3594 28.5474 20.3598 28.5477 20.36C28.5487 20.3607 30.6275 20.5128 31.7126 18.7343C31.4933 17.8237 30.8825 17.1121 30.8815 17.1114C30.8812 17.1112 30.8807 17.1108 30.8805 17.1107C30.8803 17.1105 30.8801 17.1104 30.88 17.1103C30.8799 17.1102 30.8797 17.1101 30.8797 17.1101C30.8796 17.11 30.8794 17.1099 30.8793 17.1098C30.879 17.1096 30.8787 17.1094 30.8782 17.109C30.8773 17.1084 30.8758 17.1073 30.874 17.106C30.8702 17.1033 30.8646 17.0993 30.8572 17.0939C30.8423 17.0832 30.8199 17.0671 30.79 17.0457L28.4563 20.2943ZM31.2751 20.0876C31.3178 19.995 31.3445 19.9171 31.3468 19.9106C31.3556 19.8855 31.3624 19.8647 31.3661 19.8533C31.3738 19.8294 31.3804 19.8077 31.3846 19.7938C31.3935 19.7641 31.4032 19.7309 31.4119 19.7004C31.4298 19.6378 31.4516 19.5606 31.4717 19.4884C31.4921 19.4153 31.5121 19.3434 31.5268 19.29C31.5342 19.2633 31.5403 19.2411 31.5447 19.2254C31.5468 19.2176 31.5485 19.2115 31.5497 19.2072C31.5503 19.2051 31.5507 19.2034 31.551 19.2023C31.5512 19.2017 31.5513 19.2013 31.5514 19.201C31.5514 19.2008 31.5515 19.2007 31.5515 19.2006C31.5515 19.2006 31.5515 19.2005 31.5515 19.2005C31.5515 19.2005 31.5515 19.2005 31.5515 19.2005C31.5515 19.2005 31.5515 19.2005 29.6232 18.67C27.6948 18.1396 27.6948 18.1395 27.6948 18.1395C27.6948 18.1395 27.6948 18.1395 27.6948 18.1396C27.6948 18.1396 27.6948 18.1396 27.6948 18.1396C27.6948 18.1396 27.6947 18.1397 27.6947 18.1398C27.6946 18.1401 27.6945 18.1404 27.6944 18.1409C27.6941 18.1419 27.6937 18.1433 27.6932 18.1453C27.6921 18.1492 27.6905 18.155 27.6885 18.1624C27.6844 18.1772 27.6785 18.1984 27.6715 18.2241C27.6572 18.2755 27.6383 18.3439 27.6191 18.4126C27.5996 18.4823 27.581 18.5484 27.5671 18.597C27.5599 18.6221 27.5557 18.6364 27.554 18.6418C27.5529 18.6455 27.5551 18.6383 27.5592 18.6254C27.5612 18.6194 27.5664 18.6032 27.574 18.5817C27.575 18.5787 27.6008 18.5035 27.6427 18.4124L31.2751 20.0876ZM3.05256 36.8328L-0.940069 36.5901L-0.94744 36.7113V36.8328H3.05256ZM3.05256 48.2146V52.2146H7.05256V48.2146H3.05256ZM0.877065 48.2146V44.2146H0.841812L0.806565 44.2152L0.877065 48.2146ZM0.877101 49.9999L0.806761 53.9993L0.841926 53.9999H0.877096L0.877101 49.9999ZM44.0428 50L44.0428 54H44.0818L44.1208 53.9992L44.0428 50ZM44.0428 48.2146L44.1208 44.2154L44.0818 44.2146H44.0428V48.2146ZM41.4109 48.2146H37.4109V52.2146H41.4109V48.2146ZM41.4109 37.9216L37.4329 37.5033L37.4109 37.7119V37.9216H41.4109ZM37.2574 30.862L38.9981 27.2607L38.8573 27.1926L38.7115 27.1357L37.2574 30.862ZM33.4248 29.3664L32.0204 25.621L22.2308 29.2918L31.9706 33.0927L33.4248 29.3664ZM36.2159 19.7574L32.8177 21.8675L32.8442 21.91L32.8716 21.9519L36.2159 19.7574ZM34.6791 17.2824L38.0773 15.1724L38.0729 15.1653L34.6791 17.2824ZM34.0649 15.1309L38.0649 15.1375V15.1309H34.0649ZM34.0649 11.7903L30.0649 11.7873V11.7903H34.0649ZM29.1499 2.22869L31.4754 -1.02587L31.4698 -1.02986L29.1499 2.22869ZM10.5068 13.3247L14.4948 13.6348L14.5191 13.3213L14.4942 13.0078L10.5068 13.3247ZM9.78002 17.2223L13.1783 19.3322L13.459 18.8801L13.6117 18.3703L9.78002 17.2223ZM8.24657 19.692L11.6051 21.8647L11.6252 21.8335L11.6448 21.802L8.24657 19.692ZM7.6882 26.1091L4.00493 27.6691L4.0171 27.6978L4.02972 27.7264L7.6882 26.1091ZM11.3043 29.4023L12.6584 33.1662L23.5015 29.2651L12.5733 25.609L11.3043 29.4023ZM10.8562 29.5613L11.4782 33.5127L11.8228 33.4584L12.1528 33.3454L10.8562 29.5613ZM35.2283 38.0254L31.2567 37.5494L31.2543 37.5696L31.2521 37.5898L35.2283 38.0254ZM34.1123 48.2146V52.2146H37.698L38.0885 48.6502L34.1123 48.2146ZM11.6387 48.2146L7.67673 48.7649L8.15586 52.2146H11.6387V48.2146ZM10.2303 38.0742L6.26395 38.5921L6.26606 38.6083L6.26831 38.6245L10.2303 38.0742ZM12.2018 35.8189V31.8189H12.1933L12.1849 31.8189L12.2018 35.8189ZM33.2507 35.8189V39.8189H33.2511L33.2507 35.8189ZM34.7384 36.4841L31.7571 39.1509L31.7638 39.1584L31.7706 39.1659L34.7384 36.4841ZM29.6394 32.619H33.6394V28.6048L29.6252 28.619L29.6394 32.619ZM29.6394 34.0335V38.0335H33.6394V34.0335H29.6394ZM14.4078 34.0335H10.4078V38.0335H14.4078V34.0335ZM14.4078 32.5821L14.4267 28.5822L10.4078 28.5632V32.5821H14.4078ZM14.4078 30.7969H10.4078V34.7767L14.3876 34.7968L14.4078 30.7969ZM14.4078 29.6673L13.4693 25.779L10.4078 26.5179V29.6673H14.4078ZM19.7693 25.4927L20.3112 21.5296L17.778 21.1832L16.4 23.3368L19.7693 25.4927ZM23.3326 25.6531L23.2884 21.6534L23.2186 21.6541L23.1489 21.6573L23.3326 25.6531ZM24.6752 25.5269L28.1891 23.6157L26.8115 21.0828L23.973 21.589L24.6752 25.5269ZM29.4803 29.7418L30.9339 26.0153L30.9256 26.012L30.9173 26.0088L29.4803 29.7418ZM29.6394 29.8038H33.6394V27.0706L31.093 26.0773L29.6394 29.8038ZM29.6394 30.8338L29.6555 34.8338L33.6394 34.8177V30.8338H29.6394ZM36.5321 32.4913L38.3426 28.9246L38.1678 28.8358L37.9852 28.7646L36.5321 32.4913ZM39.6312 37.7743L35.6562 37.3276L35.6424 37.4512L35.6362 37.5753L39.6312 37.7743ZM39.6255 48.2148L39.6254 52.2148L43.6889 52.215L43.6251 48.152L39.6255 48.2148ZM35.9084 48.2146L31.9322 47.7791L31.4464 52.2145L35.9082 52.2146L35.9084 48.2146ZM37.0029 38.2224L40.9791 38.6579L40.9801 38.6483L40.9812 38.6387L37.0029 38.2224ZM33.2507 34.0336L33.2731 30.0337L33.262 30.0336H33.2508L33.2507 34.0336ZM31.4248 34.0335H27.4248V38.0334L31.4247 38.0335L31.4248 34.0335ZM31.4248 30.4999L32.878 26.7732L27.4248 24.6469V30.4999H31.4248ZM32.2803 15.1415L36.271 15.414L36.3702 13.9608L35.5118 12.7841L32.2803 15.1415ZM34.7009 20.7015L31.2752 22.7667L31.3197 22.8405L31.3674 22.9123L34.7009 20.7015ZM30.6258 28.027L31.0201 24.0465L30.9044 24.035L30.7883 24.0303L30.6258 28.027ZM26.8286 24.8527L25.0992 21.2459L21.9233 22.7688L23.032 26.1119L26.8286 24.8527ZM31.4248 17.5605L35.4248 17.5649V17.5605H31.4248ZM31.4248 13.0401L31.7608 9.0542L27.4248 8.68867V13.0401H31.4248ZM32.2796 13.0317L36.2796 13.0296L36.2772 8.59427L31.8657 9.05318L32.2796 13.0317ZM32.2531 11.2481L32.467 15.2424L36.4423 15.0295L36.2484 11.0532L32.2531 11.2481ZM30.6266 11.2088L31.0334 7.2295L30.9838 7.22444L30.9342 7.22061L30.6266 11.2088ZM26.5154 9.6553L23.8744 12.6595L23.988 12.7593L24.1087 12.8503L26.5154 9.6553ZM25.3107 10.9734L22.5555 13.8733L22.688 13.9991L22.8314 14.1124L25.3107 10.9734ZM29.6394 12.8576L33.6394 12.8692L33.6493 9.42721L30.2473 8.9041L29.6394 12.8576ZM29.6232 17.7667L25.6253 17.6346L25.6232 17.7006V17.7667H29.6232ZM29.6232 18.67L33.4718 19.76L33.6232 19.2255V18.67H29.6232ZM29.0858 20.1029L32.7454 21.7178L32.7506 21.7059L29.0858 20.1029ZM23.3326 23.8678L23.3327 27.8678H23.34L23.3473 27.8678L23.3326 23.8678ZM21.3763 23.8678L21.3583 27.8678L21.3673 27.8678H21.3764L21.3763 23.8678ZM15.06 17.5605L11.06 17.5606V17.5724L11.06 17.5843L15.06 17.5605ZM15.0599 12.748L14.3588 8.80993L11.0599 9.39726L11.0599 12.7481L15.0599 12.748ZM28.9013 4.31248L31.5363 1.30307L27.9439 -1.84249L25.4766 2.24565L28.9013 4.31248ZM21.3536 1.84249L20.9902 -2.14096L20.9458 -2.13691L20.9016 -2.13188L21.3536 1.84249ZM27.453 3.2509L30.909 5.26486L32.8886 1.86785L29.5262 -0.169926L27.453 3.2509ZM14.0282 11.1234L13.4262 7.16892L13.4162 7.17046L13.4061 7.17204L14.0282 11.1234ZM12.3278 11.3309L8.33578 11.0778L8.03878 15.7627L12.7114 15.3125L12.3278 11.3309ZM9.32014 25.3847L5.62713 26.9215L5.67438 27.035L5.72851 27.1454L9.32014 25.3847ZM9.76169 20.6361L13.108 22.8275L13.1343 22.7873L13.1597 22.7465L9.76169 20.6361ZM11.2956 18.1664L7.90356 16.0464L7.89759 16.056L11.2956 18.1664ZM12.292 13.1259L11.9332 9.14206L8.63627 9.43899L8.31132 12.7333L12.292 13.1259ZM13.2745 13.0239H17.2745V8.50787L12.7915 9.05315L13.2745 13.0239ZM13.2745 17.5606H9.27449L9.27449 17.563L13.2745 17.5606ZM18.0387 24.9165L21.5102 26.9035L23.702 23.0742L19.6768 21.2673L18.0387 24.9165ZM12.6223 30.8151L16.6223 30.8149L16.622 23.6988L10.5429 27.3981L12.6223 30.8151ZM12.6224 34.0335L12.2694 38.0179L16.6226 38.4036L16.6224 34.0333L12.6224 34.0335ZM9.35242 35.3281L6.36776 32.6651L6.35183 32.6829L6.33611 32.701L9.35242 35.3281ZM8.46152 38.3191L4.4993 38.8677L4.49955 38.8694L8.46152 38.3191ZM9.83586 48.2147V52.2147H14.4298L13.7978 47.6644L9.83586 48.2147ZM4.83783 48.2147L0.837831 48.2152L0.838408 52.2147H4.83783V48.2147ZM4.8362 36.8877L0.862271 36.4318L0.836164 36.6593L0.836197 36.8883L4.8362 36.8877ZM11.2478 29.4227L12.6032 33.186L12.6035 33.1859L11.2478 29.4227ZM14.8915 32.5844L14.9106 28.5845H14.9105L14.8915 32.5844ZM34.1569 19.8378L30.7914 21.9996L30.7914 21.9996L34.1569 19.8378ZM32.2795 13.6814L28.2795 13.6796V13.6796L32.2795 13.6814ZM11.1227 31.3058L12.1197 35.1796H12.1197L11.1227 31.3058ZM29.4589 19.25L33.1236 20.853L33.2331 20.6028L33.3075 20.34L29.4589 19.25ZM-0.94744 36.8328V48.2146H7.05256V36.8328H-0.94744ZM3.05256 44.2146H0.877065V52.2146H3.05256V44.2146ZM0.806565 44.2152C-0.475986 44.2379 -1.69834 44.7632 -2.59732 45.6782L3.10922 51.2849C2.53832 51.866 1.76206 52.1996 0.947565 52.214L0.806565 44.2152ZM-2.59732 45.6782C-3.4963 46.5932 -4.00003 47.8246 -4 49.1074L4 49.1072C4.00002 49.9218 3.68012 50.7039 3.10922 51.2849L-2.59732 45.6782ZM-4 49.1074C-3.99997 50.3901 -3.49622 51.6215 -2.59718 52.5365L3.10913 46.9295C3.68008 47.5106 3.99998 48.2926 4 49.1072L-4 49.1074ZM-2.59718 52.5365C-1.69815 53.4515 -0.47577 53.9768 0.806761 53.9993L0.947441 46.0006C1.76192 46.0149 2.5382 46.3485 3.10913 46.9295L-2.59718 52.5365ZM0.877096 53.9999L44.0428 54L44.0428 46L0.877106 45.9999L0.877096 53.9999ZM44.1208 53.9992C45.4016 53.9743 46.6217 53.4479 47.5187 52.5332L41.807 46.9317C42.3767 46.3509 43.1515 46.0166 43.9648 46.0008L44.1208 53.9992ZM47.5187 52.5332C48.4158 51.6185 48.9183 50.3884 48.9183 49.1073H40.9183C40.9183 48.2938 41.2373 47.5127 41.807 46.9317L47.5187 52.5332ZM48.9183 49.1073C48.9183 47.8262 48.4158 46.5961 47.5187 45.6814L41.807 51.2829C41.2373 50.702 40.9183 49.9208 40.9183 49.1073H48.9183ZM47.5187 45.6814C46.6217 44.7667 45.4016 44.2403 44.1208 44.2154L43.9648 52.2139C43.1515 52.198 42.3767 51.8638 41.807 51.2829L47.5187 45.6814ZM44.0428 44.2146H41.4109V52.2146H44.0428V44.2146ZM45.4109 48.2146V37.9216H37.4109V48.2146H45.4109ZM45.389 38.34C45.7891 34.5357 44.1591 31.715 42.5643 29.977C41.0276 28.3023 39.3761 27.4434 38.9981 27.2607L35.5166 34.4634C35.4001 34.4071 36.0719 34.7342 36.6698 35.3858C37.2097 35.9742 37.5257 36.6201 37.4329 37.5033L45.389 38.34ZM38.7115 27.1357L34.879 25.6401L31.9706 33.0927L35.8032 34.5883L38.7115 27.1357ZM34.8292 33.1117C41.3944 30.65 42.9454 22.7218 39.5602 17.563L32.8716 21.9519C33.3065 22.6145 33.423 23.4641 33.2141 24.2214C33.0137 24.9482 32.5761 25.4127 32.0204 25.621L34.8292 33.1117ZM39.6141 17.6474L38.0773 15.1724L31.2809 19.3925L32.8177 21.8675L39.6141 17.6474ZM38.0729 15.1653C38.0677 15.1569 38.0649 15.1473 38.0649 15.1375L30.0649 15.1243C30.0625 16.6357 30.4854 18.1173 31.2854 19.3996L38.0729 15.1653ZM38.0649 15.1309V11.7903H30.0649V15.1309H38.0649ZM38.0649 11.7933C38.0668 9.28618 37.4698 6.8149 36.3236 4.58516L29.2086 8.24257C29.7723 9.33909 30.0659 10.5544 30.0649 11.7873L38.0649 11.7933ZM36.3236 4.58516C35.1775 2.35542 33.5153 0.431697 31.4754 -1.02586L26.8244 5.48324C27.8275 6.20001 28.645 7.14604 29.2086 8.24257L36.3236 4.58516ZM31.4698 -1.02986C20.017 -9.18351 5.46581 0.384084 6.51937 13.6416L14.4942 13.0078C13.9228 5.8173 21.4826 1.6802 26.83 5.48724L31.4698 -1.02986ZM6.51884 13.0146C6.43818 14.0519 6.24691 15.0776 5.9483 16.0743L13.6117 18.3703C14.0739 16.8278 14.3699 15.2403 14.4948 13.6348L6.51884 13.0146ZM6.38177 15.1123L4.84833 17.5821L11.6448 21.802L13.1783 19.3322L6.38177 15.1123ZM4.88809 17.5193C3.92343 19.0105 3.33858 20.7151 3.18463 22.4844L11.1545 23.1779C11.1952 22.7099 11.3499 22.2591 11.6051 21.8647L4.88809 17.5193ZM3.18463 22.4844C3.03068 24.2537 3.31232 26.0338 4.00493 27.6691L11.3715 24.5492C11.1883 24.1166 11.1138 23.6458 11.1545 23.1779L3.18463 22.4844ZM4.02972 27.7264C4.59522 29.0056 5.42142 30.1528 6.4555 31.0945L11.8422 25.1798C11.6309 24.9875 11.4622 24.7532 11.3467 24.4919L4.02972 27.7264ZM6.4555 31.0945C7.48959 32.0363 8.7088 32.7519 10.0352 33.1957L12.5733 25.609C12.3024 25.5184 12.0534 25.3722 11.8422 25.1798L6.4555 31.0945ZM10.2342 25.61C8.43136 25.8938 5.92244 26.6954 3.72113 28.3054C1.43788 29.9754 -0.702728 32.6858 -0.940069 36.5901L7.04519 37.0755C7.1025 36.1327 7.55388 35.4136 8.44387 34.7627C9.4158 34.0518 10.6614 33.6412 11.4782 33.5127L10.2342 25.61ZM31.2521 37.5898L30.136 47.7791L38.0885 48.6502L39.2045 38.4609L31.2521 37.5898ZM34.1123 44.2146H11.6387V52.2146H34.1123V44.2146ZM15.6007 47.6643L14.1922 37.5239L6.26831 38.6245L7.67673 48.7649L15.6007 47.6643ZM14.1966 37.5563C14.2334 37.8382 14.2098 38.1247 14.1274 38.3967L6.47125 36.0764C6.22445 36.8907 6.15378 37.7483 6.26395 38.5921L14.1966 37.5563ZM14.1274 38.3967C14.0449 38.6687 13.9055 38.9201 13.7184 39.1341L7.69538 33.8689C7.13534 34.5095 6.71805 35.262 6.47125 36.0764L14.1274 38.3967ZM13.7184 39.1341C13.5314 39.3481 13.3009 39.5198 13.0423 39.6379L9.71946 32.3606C8.94538 32.7141 8.25541 33.2282 7.69538 33.8689L13.7184 39.1341ZM13.0423 39.6379C12.7837 39.756 12.503 39.8177 12.2187 39.8189L12.1849 31.8189C11.3339 31.8225 10.4935 32.0072 9.71946 32.3606L13.0423 39.6379ZM12.2018 39.8189H33.2507V31.8189H12.2018V39.8189ZM33.2511 39.8189C32.9691 39.8189 32.6902 39.7594 32.4328 39.6444L35.6982 32.3411C34.9281 31.9968 34.094 31.8188 33.2503 31.8189L33.2511 39.8189ZM32.4328 39.6444C32.1754 39.5292 31.9451 39.3611 31.7571 39.1509L37.7196 33.8172C37.1572 33.1885 36.4684 32.6855 35.6982 32.3411L32.4328 39.6444ZM31.7706 39.1659C31.5744 38.9488 31.427 38.6922 31.3384 38.4134L38.9625 35.9898C38.7048 35.1793 38.2764 34.4333 37.7062 33.8023L31.7706 39.1659ZM31.3384 38.4134C31.2498 38.1345 31.2219 37.8399 31.2567 37.5494L39.1999 38.5013C39.3011 37.6568 39.2202 36.8004 38.9625 35.9898L31.3384 38.4134ZM25.6394 32.619V34.0335H33.6394V32.619H25.6394ZM29.6394 30.0335H14.4078V38.0335H29.6394V30.0335ZM18.4078 34.0335V32.5821H10.4078V34.0335H18.4078ZM18.4078 30.7969V29.6673H10.4078V30.7969H18.4078ZM15.3464 33.5556C16.7248 33.2229 18.1843 32.73 19.6196 31.6646C21.004 30.6369 22.0969 29.2765 23.1386 27.6486L16.4 23.3368C15.6089 24.5732 15.1333 25.0316 14.8513 25.2409C14.6201 25.4125 14.3152 25.5748 13.4693 25.779L15.3464 33.5556ZM19.2273 29.4558C20.6481 29.6501 22.0837 29.7148 23.5163 29.6489L23.1489 21.6573C22.2011 21.7009 21.2513 21.6582 20.3112 21.5296L19.2273 29.4558ZM23.3768 29.6529C24.0477 29.6455 24.7169 29.5826 25.3774 29.4648L23.973 21.589C23.747 21.6293 23.518 21.6508 23.2884 21.6534L23.3768 29.6529ZM21.1613 27.438C22.6655 30.2038 25.1052 32.3437 28.0433 33.4748L30.9173 26.0088C29.7525 25.5604 28.7854 24.7121 28.1891 23.6157L21.1613 27.438ZM28.0266 33.4683L28.1857 33.5304L31.093 26.0773L30.9339 26.0153L28.0266 33.4683ZM25.6394 29.8038V30.8338H33.6394V29.8038H25.6394ZM29.6233 26.8338C25.5799 26.8501 17.3073 26.8115 14.4281 26.7969L14.3876 34.7968C17.2536 34.8113 25.5676 34.8502 29.6555 34.8338L29.6233 26.8338ZM34.7215 36.0581C34.6322 36.0128 34.7043 36.0437 34.8504 36.1451C35.0004 36.2493 35.1788 36.3934 35.3346 36.5631C35.4902 36.7326 35.5759 36.8758 35.6181 36.981C35.6503 37.0616 35.6752 37.1586 35.6562 37.3276L43.6062 38.221C43.9702 34.9823 42.5388 32.5811 41.2281 31.1533C39.9618 29.7737 38.6137 29.0622 38.3426 28.9246L34.7215 36.0581ZM35.6362 37.5753C35.6225 37.8501 35.6245 48.181 35.626 48.2776L43.6251 48.152C43.6252 48.1635 43.6248 47.5618 43.6248 46.5494C43.6248 45.5749 43.625 44.2855 43.6254 42.9961C43.6263 40.2912 43.6298 37.9024 43.6263 37.9733L35.6362 37.5753ZM39.6257 44.2148L35.9086 44.2146L35.9082 52.2146L39.6254 52.2148L39.6257 44.2148ZM39.8846 48.6502L40.9791 38.6579L33.0266 37.7869L31.9322 47.7791L39.8846 48.6502ZM40.9812 38.6387C41.0944 37.5563 40.9797 36.4623 40.6445 35.4269L33.0335 37.891C33.0246 37.8637 33.0216 37.8347 33.0246 37.8061L40.9812 38.6387ZM40.6445 35.4269C40.3093 34.3916 39.7611 33.4379 39.0349 32.6273L33.076 37.965C33.0568 37.9435 33.0423 37.9184 33.0335 37.891L40.6445 35.4269ZM39.0349 32.6273C38.3088 31.8166 37.421 31.1671 36.4286 30.7204L33.1449 38.0154C33.1187 38.0036 33.0952 37.9864 33.076 37.965L39.0349 32.6273ZM36.4286 30.7204C35.4363 30.2737 34.3614 30.0398 33.2731 30.0337L33.2283 38.0335C33.1995 38.0334 33.1711 38.0272 33.1449 38.0154L36.4286 30.7204ZM33.2508 30.0336L31.425 30.0335L31.4247 38.0335L33.2506 38.0336L33.2508 30.0336ZM35.4248 34.0335V30.4999H27.4248V34.0335H35.4248ZM29.9717 34.2267L35.079 36.2181L37.9852 28.7646L32.878 26.7732L29.9717 34.2267ZM31.3674 22.9123C31.5779 23.2298 31.5722 23.6088 31.438 23.8684C31.3803 23.98 31.3257 24.0154 31.313 24.0226C31.3054 24.0269 31.2899 24.0349 31.2568 24.0417C31.2237 24.0485 31.1487 24.0592 31.0201 24.0465L30.2314 32.0075C34.0394 32.3848 37.0829 30.3699 38.5447 27.542C39.9469 24.8293 39.9256 21.3422 38.0344 18.4907L31.3674 22.9123ZM30.7883 24.0303C30.9823 24.0382 31.122 24.0731 31.1973 24.0968C31.2719 24.1203 31.302 24.1386 31.2878 24.1309C31.2746 24.1237 31.2361 24.101 31.1757 24.0556C31.116 24.0109 31.0465 23.9526 30.971 23.8813C30.814 23.7328 30.6783 23.5718 30.5875 23.4439C30.5436 23.382 30.5253 23.3491 30.5262 23.3507C30.5272 23.3526 30.5374 23.3711 30.5531 23.406C30.5682 23.4395 30.5952 23.5029 30.6253 23.5935L23.032 26.1119C23.4835 27.4732 24.517 28.7884 25.4738 29.6934C26.4039 30.5731 28.1658 31.9302 30.4632 32.0237L30.7883 24.0303ZM28.5581 28.4595C30.6124 27.4744 32.3468 25.9293 33.5616 24.0019L26.7938 19.7362C26.3823 20.389 25.7949 20.9123 25.0992 21.2459L28.5581 28.4595ZM33.5616 24.0019C34.7764 22.0745 35.4223 19.8432 35.4248 17.5649L27.4248 17.5561C27.4239 18.3277 27.2052 19.0834 26.7938 19.7362L33.5616 24.0019ZM35.4248 17.5605V13.0401H27.4248V17.5605H35.4248ZM31.0888 17.0259C31.623 17.071 32.1602 17.0657 32.6934 17.0102L31.8657 9.05318C31.8308 9.05681 31.7957 9.05715 31.7608 9.0542L31.0888 17.0259ZM32.0393 7.25383C31.7038 7.27179 31.3675 7.26365 31.0334 7.2295L30.2199 15.188C30.9664 15.2643 31.7177 15.2825 32.467 15.2424L32.0393 7.25383ZM30.9342 7.22061C30.2047 7.16436 29.5065 6.90055 28.9221 6.46034L24.1087 12.8503C25.9125 14.209 28.0675 15.0233 30.3191 15.1969L30.9342 7.22061ZM29.1564 6.65111C28.1941 5.80512 26.9383 5.37036 25.6589 5.44027L26.0953 13.4284C25.2829 13.4727 24.4855 13.1967 23.8744 12.6595L29.1564 6.65111ZM25.6589 5.44027C24.3795 5.51017 23.1785 6.07915 22.3141 7.02495L28.2192 12.4221C27.6703 13.0227 26.9077 13.384 26.0953 13.4284L25.6589 5.44027ZM22.3141 7.02495C21.4496 7.97077 20.9907 9.21792 21.0358 10.4984L29.0308 10.2165C29.0595 11.0296 28.7681 11.8215 28.2192 12.4221L22.3141 7.02495ZM21.0358 10.4984C21.081 11.779 21.6266 12.9907 22.5555 13.8733L28.0659 8.07358C28.6557 8.63399 29.0022 9.40341 29.0308 10.2165L21.0358 10.4984ZM22.8314 14.1124C24.6299 15.533 26.7662 16.4628 29.0315 16.8112L30.2473 8.9041C29.3495 8.76605 28.5028 8.39751 27.79 7.83448L22.8314 14.1124ZM29.6394 12.8576C25.6394 12.8461 25.6394 12.8461 25.6394 12.8462C25.6394 12.8462 25.6394 12.8463 25.6394 12.8463C25.6394 12.8465 25.6394 12.8467 25.6394 12.847C25.6394 12.8476 25.6394 12.8484 25.6394 12.8496C25.6394 12.8519 25.6394 12.8554 25.6394 12.86C25.6393 12.8691 25.6393 12.8827 25.6393 12.9004C25.6392 12.9359 25.639 12.9879 25.6388 13.0541C25.6384 13.1865 25.6379 13.3758 25.6372 13.6031C25.6359 14.0578 25.634 14.6647 25.6322 15.2737C25.6281 16.5677 25.6238 17.6796 25.6253 17.6346L33.621 17.8988C33.6248 17.7843 33.6286 16.4417 33.6321 15.2985C33.634 14.689 33.6358 14.0816 33.6372 13.6267C33.6378 13.3993 33.6384 13.2099 33.6388 13.0774C33.639 13.0111 33.6391 12.9591 33.6392 12.9236C33.6393 12.9058 33.6393 12.8922 33.6393 12.8831C33.6394 12.8785 33.6394 12.875 33.6394 12.8727C33.6394 12.8715 33.6394 12.8706 33.6394 12.8701C33.6394 12.8698 33.6394 12.8695 33.6394 12.8694C33.6394 12.8693 33.6394 12.8693 33.6394 12.8692C33.6394 12.8692 33.6394 12.8692 29.6394 12.8576ZM25.6232 17.7667V18.67H33.6232V17.7667H25.6232ZM25.4263 18.4881C25.2457 18.8972 24.9505 19.2453 24.5763 19.4901L28.9569 26.1842C30.6248 25.0928 31.9407 23.5414 32.7454 21.7178L25.4263 18.4881ZM24.5763 19.4901C24.2022 19.735 23.765 19.8662 23.3179 19.8678L23.3473 27.8678C25.3405 27.8604 27.289 27.2757 28.9569 26.1842L24.5763 19.4901ZM23.3325 19.8678L21.3762 19.8678L21.3764 27.8678L23.3327 27.8678L23.3325 19.8678ZM21.3944 19.8679C20.7767 19.8651 20.185 19.6187 19.7479 19.1822L14.0951 24.8431C16.0233 26.7686 18.6333 27.8555 21.3583 27.8678L21.3944 19.8679ZM19.7479 19.1822C19.3108 18.7457 19.0636 18.1544 19.0599 17.5367L11.06 17.5843C11.0762 20.3092 12.1669 22.9177 14.0951 24.8431L19.7479 19.1822ZM19.0599 17.5605L19.0599 12.748L11.0599 12.7481L11.06 17.5606L19.0599 17.5605ZM15.761 16.6861C25.4767 14.9563 30.2403 9.83518 32.3259 6.37931L25.4766 2.24565C24.4337 3.97368 21.5355 7.5322 14.3588 8.80993L15.761 16.6861ZM26.2662 7.32188C26.8579 7.83992 27.3391 8.4718 27.6813 9.17983L34.8842 5.69879C34.0747 4.02366 32.9361 2.5287 31.5363 1.30307L26.2662 7.32188ZM27.6813 9.17983C28.0235 9.88786 28.2196 10.6575 28.2579 11.443L36.2484 11.0532C36.1577 9.19493 35.6938 7.37393 34.8842 5.69879L27.6813 9.17983ZM21.7171 5.82595C22.997 5.70916 24.2807 6.00558 25.3799 6.67172L29.5262 -0.169926C26.9646 -1.72233 23.9731 -2.41312 20.9902 -2.14096L21.7171 5.82595ZM23.997 1.23693C23.1689 2.65804 20.577 6.0805 13.4262 7.16892L14.6301 15.0778C24.4152 13.5884 28.9921 8.55436 30.909 5.26486L23.997 1.23693ZM13.4061 7.17204C12.9718 7.24041 12.4862 7.29711 11.9441 7.34935L12.7114 15.3125C13.3364 15.2522 13.9965 15.1776 14.6502 15.0747L13.4061 7.17204ZM16.3198 11.584C16.4118 10.1317 17.0119 8.75802 18.0149 7.70364L12.2185 2.18982C9.92114 4.60492 8.54666 7.75127 8.33578 11.0778L16.3198 11.584ZM18.0149 7.70364C19.0179 6.64925 20.3598 5.98134 21.8057 5.81686L20.9016 -2.13188C17.5897 -1.75515 14.5159 -0.225266 12.2185 2.18982L18.0149 7.70364ZM13.0131 23.8479C12.9445 23.683 12.9173 23.5038 12.9338 23.3259L4.96818 22.5852C4.83079 24.0627 5.05702 25.5515 5.62713 26.9215L13.0131 23.8479ZM12.9338 23.3259C12.9504 23.148 13.0102 22.9769 13.108 22.8275L6.41536 18.4448C5.60241 19.6862 5.10557 21.1077 4.96818 22.5852L12.9338 23.3259ZM13.1597 22.7465L14.6935 20.2768L7.89759 16.056L6.36371 18.5258L13.1597 22.7465ZM14.6876 20.2864C15.2292 19.4198 15.482 18.3769 15.5958 17.8917C15.7508 17.2303 15.8751 16.515 15.9699 15.8966C16.0664 15.2668 16.1414 14.6777 16.192 14.2497C16.2175 14.0343 16.2372 13.8562 16.2507 13.73C16.2575 13.6668 16.2627 13.6165 16.2664 13.5807C16.2682 13.5628 16.2697 13.5485 16.2707 13.5381C16.2713 13.5329 16.2717 13.5286 16.272 13.5254C16.2722 13.5237 16.2723 13.5224 16.2724 13.5212C16.2725 13.5207 16.2725 13.5202 16.2726 13.5197C16.2726 13.5195 16.2726 13.5192 16.2726 13.5191C16.2727 13.5188 16.2727 13.5186 12.292 13.1259C8.31132 12.7333 8.31134 12.7331 8.31136 12.7329C8.31137 12.7328 8.31139 12.7326 8.3114 12.7325C8.31141 12.7323 8.31143 12.7322 8.31143 12.7321C8.31145 12.732 8.31144 12.7321 8.3114 12.7324C8.31134 12.7331 8.31117 12.7348 8.31091 12.7373C8.3104 12.7424 8.30951 12.7513 8.30824 12.7636C8.30572 12.7882 8.30172 12.8266 8.29629 12.8772C8.28543 12.9785 8.26897 13.1275 8.24733 13.3105C8.20372 13.6794 8.14074 14.1726 8.06228 14.6843C7.98207 15.2075 7.8943 15.6931 7.80694 16.0657C7.76318 16.2524 7.73069 16.3622 7.71506 16.409C7.68486 16.4993 7.73159 16.3216 7.90357 16.0464L14.6876 20.2864ZM12.6508 17.1098C13.0089 17.0776 13.3806 17.0405 13.7575 16.9946L12.7915 9.05315C12.5241 9.08567 12.2406 9.11438 11.9332 9.14206L12.6508 17.1098ZM9.27449 13.0239V17.5606H17.2745V13.0239H9.27449ZM9.27449 17.563C9.27592 19.8886 9.94923 22.1642 11.2134 24.1162L17.9281 19.7673C17.502 19.1093 17.275 18.3421 17.2745 17.5581L9.27449 17.563ZM11.2134 24.1162C12.4777 26.0681 14.2789 27.6132 16.4005 28.5656L19.6768 21.2673C18.9616 20.9462 18.3543 20.4253 17.9281 19.7673L11.2134 24.1162ZM14.5671 22.9294C14.0992 23.7469 13.4975 23.9587 13.2694 23.9775C13.2163 23.9819 13.1859 23.9772 13.1747 23.9748C13.165 23.9728 13.1624 23.9712 13.1604 23.97C13.1589 23.9692 13.1372 23.9573 13.0989 23.9154C13.0598 23.8727 12.9905 23.7845 12.9118 23.6239L5.72851 27.1454C7.39058 30.5358 10.5976 32.2256 13.9283 31.9503C17.0648 31.6912 19.8814 29.7493 21.5102 26.9035L14.5671 22.9294ZM8.6223 30.8153L8.62244 34.0337L16.6224 34.0333L16.6223 30.8149L8.6223 30.8153ZM12.9754 30.0491C11.7464 29.9402 10.5089 30.1201 9.36167 30.5742L12.3064 38.0125C12.2947 38.0172 12.282 38.019 12.2694 38.0179L12.9754 30.0491ZM9.36167 30.5742C8.21444 31.0284 7.18921 31.7444 6.36776 32.6651L12.3371 37.9911C12.3287 38.0006 12.3182 38.0079 12.3064 38.0125L9.36167 30.5742ZM6.33611 32.701C5.60712 33.5379 5.06598 34.5214 4.74913 35.5852L12.4162 37.8689C12.4068 37.9007 12.3906 37.9302 12.3687 37.9552L6.33611 32.701ZM4.74913 35.5852C4.43229 36.6489 4.3471 37.7682 4.4993 38.8677L12.4237 37.7706C12.4283 37.8035 12.4257 37.837 12.4162 37.8689L4.74913 35.5852ZM4.49955 38.8694L5.87389 48.7649L13.7978 47.6644L12.4235 37.7689L4.49955 38.8694ZM9.83586 44.2147H4.83783V52.2147H9.83586V44.2147ZM8.83783 48.2141L8.8362 36.8872L0.836197 36.8883L0.837831 48.2152L8.83783 48.2141ZM12.1528 33.3454C12.3229 33.2871 12.4793 33.2306 12.6032 33.186L9.89235 25.6593C9.76079 25.7067 9.66166 25.7423 9.55966 25.7773L12.1528 33.3454ZM12.6035 33.1859C12.6224 33.1791 12.6404 33.1726 12.6584 33.1662L9.95012 25.6385C9.93037 25.6456 9.91078 25.6527 9.89207 25.6594L12.6035 33.1859ZM29.6252 28.619C25.3494 28.6342 18.1292 28.5998 14.9106 28.5845L14.8725 36.5844C18.078 36.5996 25.3368 36.6342 29.6535 36.619L29.6252 28.619ZM14.9105 28.5845C14.7372 28.5836 14.5755 28.5829 14.4267 28.5822L14.389 36.5821C14.5377 36.5828 14.6992 36.5835 14.8725 36.5844L14.9105 28.5845ZM37.5224 17.676C37.0399 16.9249 36.699 16.3823 36.4652 15.8777C36.2284 15.3666 36.2815 15.2601 36.271 15.414L28.2896 14.8691C28.1696 16.6272 28.7056 18.1598 29.2067 19.2412C29.7108 20.3293 30.363 21.3327 30.7914 21.9996L37.5224 17.676ZM35.5118 12.7841C35.7851 13.2137 36.0778 13.8849 36.1421 14.0993C36.1723 14.2184 36.2136 14.4141 36.2269 14.4899C36.2497 14.6283 36.26 14.7375 36.2633 14.773C36.2714 14.8604 36.2747 14.9289 36.2755 14.9464C36.2779 14.9954 36.2788 15.0335 36.279 15.0412C36.2796 15.0658 36.2798 15.084 36.2798 15.085C36.2799 15.0921 36.2799 15.0933 36.2798 15.0832C36.2797 15.0657 36.2796 15.0358 36.2796 14.9925C36.2794 14.9073 36.2793 14.7856 36.2793 14.6423C36.2793 14.3564 36.2794 13.9932 36.2795 13.6831L28.2795 13.6796C28.2794 13.9889 28.2793 14.3548 28.2793 14.6436C28.2793 14.7877 28.2794 14.9148 28.2796 15.0068C28.2796 15.0521 28.2798 15.0929 28.2799 15.1241C28.28 15.1383 28.2801 15.1583 28.2803 15.1783C28.2804 15.1856 28.2807 15.2087 28.2814 15.2366C28.2816 15.246 28.2826 15.2854 28.285 15.3353C28.2859 15.3532 28.2892 15.422 28.2973 15.5096C28.3006 15.5453 28.3109 15.6545 28.3337 15.793C28.347 15.8689 28.3883 16.0646 28.4185 16.1837C28.4828 16.3981 28.7755 17.0694 29.0488 17.499L35.5118 12.7841ZM36.2795 13.6832C36.2796 13.5014 36.2796 13.3381 36.2796 13.2203C36.2796 13.1614 36.2796 13.1138 36.2796 13.0809C36.2796 13.0645 36.2796 13.0517 36.2796 13.043C36.2796 13.0387 36.2796 13.0353 36.2796 13.0331C36.2796 13.0319 36.2796 13.0311 36.2796 13.0305C36.2796 13.0302 36.2796 13.03 36.2796 13.0298C36.2796 13.0298 36.2796 13.0297 36.2796 13.0297C36.2796 13.0296 36.2796 13.0296 36.2796 13.0296C36.2796 13.0296 36.2796 13.0296 36.2796 13.0296C36.2796 13.0296 36.2796 13.0296 32.2796 13.0317C28.2796 13.0338 28.2796 13.0338 28.2796 13.0338C28.2796 13.0338 28.2796 13.0338 28.2796 13.0338C28.2796 13.0338 28.2796 13.0338 28.2796 13.0339C28.2796 13.0339 28.2796 13.0339 28.2796 13.034C28.2796 13.0341 28.2796 13.0343 28.2796 13.0346C28.2796 13.0351 28.2796 13.0359 28.2796 13.037C28.2796 13.0391 28.2796 13.0424 28.2796 13.0466C28.2796 13.0551 28.2796 13.0676 28.2796 13.0838C28.2796 13.1162 28.2796 13.1633 28.2796 13.2216C28.2796 13.3382 28.2796 13.4998 28.2795 13.6796L36.2795 13.6832ZM38.1266 18.6364C37.9263 18.3042 37.7084 17.9655 37.5224 17.676L30.7914 21.9996C30.9914 22.311 31.1447 22.5502 31.2752 22.7667L38.1266 18.6364ZM10.5429 27.3981C10.7177 27.2917 10.8439 27.2408 10.8677 27.2313C10.8985 27.219 10.8925 27.223 10.8286 27.2427C10.7674 27.2617 10.6812 27.2863 10.5572 27.3196C10.4326 27.3531 10.2956 27.3884 10.1257 27.4321L12.1197 35.1796C12.4228 35.1016 12.8241 34.9993 13.1888 34.8867C13.5066 34.7885 14.1102 34.5921 14.7017 34.2321L10.5429 27.3981ZM10.1257 27.4321C9.09832 27.6965 6.99848 28.2034 5.12255 29.4386C3.03613 30.8124 1.24946 33.0574 0.862271 36.4318L8.81012 37.3437C8.86059 36.9038 8.97464 36.6798 9.0525 36.5606C9.13786 36.43 9.27459 36.2832 9.52206 36.1203C10.117 35.7286 10.926 35.4868 12.1197 35.1796L10.1257 27.4321ZM25.7745 17.58L25.6103 18.1601L33.3075 20.34L33.4718 19.76L25.7745 17.58ZM25.7941 17.647L25.4211 18.4999L32.7506 21.7059L33.1236 20.853L25.7941 17.647Z" fill="#023047" mask="url(#path-1-inside-1_138_590)"/>
</svg>
