<svg width="24" height="22" viewBox="0 0 24 22" fill="none" xmlns="http://www.w3.org/2000/svg">
<path d="M16.4484 5.66372C16.2439 5.66372 16.0669 5.58899 15.9174 5.43953C15.7679 5.29007 15.6932 5.11308 15.6932 4.90855C15.6932 4.50737 15.7679 4.12193 15.9174 3.75221C16.0669 3.3825 16.2871 3.05605 16.5782 2.77286L17.5103 1.82891C17.8092 1.52999 17.9587 1.17207 17.9587 0.755162C17.9587 0.550639 18.0334 0.373648 18.1829 0.224189C18.3323 0.0747296 18.5093 0 18.7139 0C18.9184 0 19.0954 0.0747296 19.2448 0.224189C19.3943 0.373648 19.469 0.550639 19.469 0.755162C19.469 1.15634 19.3943 1.54179 19.2448 1.9115C19.0954 2.28122 18.8751 2.60767 18.5841 2.89086L17.6519 3.83481C17.353 4.13373 17.2035 4.49164 17.2035 4.90855C17.2035 5.11308 17.1288 5.29007 16.9794 5.43953C16.8299 5.58899 16.6529 5.66372 16.4484 5.66372ZM11.9174 5.66372C11.7129 5.66372 11.5359 5.58899 11.3864 5.43953C11.237 5.29007 11.1622 5.11308 11.1622 4.90855C11.1622 4.50737 11.237 4.12193 11.3864 3.75221C11.5359 3.3825 11.7561 3.05605 12.0472 2.77286L12.9794 1.82891C13.2783 1.52999 13.4277 1.17207 13.4277 0.755162C13.4277 0.550639 13.5025 0.373648 13.6519 0.224189C13.8014 0.0747296 13.9784 0 14.1829 0C14.3874 0 14.5644 0.0747296 14.7139 0.224189C14.8633 0.373648 14.9381 0.550639 14.9381 0.755162C14.9381 1.15634 14.8633 1.54179 14.7139 1.9115C14.5644 2.28122 14.3441 2.60767 14.0531 2.89086L13.1209 3.83481C12.822 4.13373 12.6726 4.49164 12.6726 4.90855C12.6726 5.11308 12.5978 5.29007 12.4484 5.43953C12.2989 5.58899 12.1219 5.66372 11.9174 5.66372ZM21.7345 7.74041C22.0492 7.74041 22.3441 7.79941 22.6195 7.9174C22.8948 8.0354 23.1347 8.19666 23.3392 8.40118C23.5438 8.6057 23.705 8.84562 23.823 9.12094C23.941 9.39626 24 9.69125 24 10.0059V14.5369C24 14.8515 23.941 15.1465 23.823 15.4218C23.705 15.6971 23.5438 15.9371 23.3392 16.1416C23.1347 16.3461 22.8948 16.5074 22.6195 16.6254C22.3441 16.7434 22.0492 16.8024 21.7345 16.8024H21.0619C21.0462 16.8574 21.0344 16.9086 21.0265 16.9558C21.0187 17.003 21.003 17.0501 20.9794 17.0973V17.5575C20.9794 18.0767 20.881 18.5644 20.6844 19.0206C20.4877 19.4769 20.2163 19.8781 19.8702 20.2242C19.5241 20.5703 19.1229 20.8417 18.6667 21.0383C18.2104 21.235 17.7227 21.3333 17.2035 21.3333H12.6726C12.059 21.3333 11.4926 21.1957 10.9735 20.9204C10.4543 20.645 10.0216 20.2793 9.67552 19.823H3.77581C3.25664 19.823 2.76893 19.7247 2.31268 19.528C1.85644 19.3314 1.45526 19.0639 1.10914 18.7257C0.763029 18.3874 0.491642 17.9862 0.294985 17.5221C0.0983284 17.058 0 16.5664 0 16.0472V15.292H3.02065C3.02065 14.6706 3.13864 14.0846 3.37463 13.5339C3.61062 12.9833 3.93707 12.5034 4.35398 12.0944C4.77089 11.6853 5.25074 11.3589 5.79351 11.115C6.33628 10.8712 6.92232 10.7532 7.55162 10.7611C7.78761 10.7611 8.01573 10.7807 8.23599 10.8201C8.45624 10.8594 8.6765 10.9145 8.89676 10.9853V6.23009H20.9794V7.74041H21.7345ZM7.55162 12.2714C7.13471 12.2714 6.74533 12.35 6.38348 12.5074C6.02163 12.6647 5.69911 12.881 5.41593 13.1563C5.13274 13.4317 4.91642 13.7502 4.76696 14.1121C4.6175 14.4739 4.53884 14.8673 4.53097 15.292H8.89676V12.6018C8.69223 12.4995 8.47984 12.4208 8.25959 12.3658C8.03933 12.3107 7.80334 12.2793 7.55162 12.2714ZM3.77581 18.3127H8.97935C8.92429 18.0846 8.89676 17.8328 8.89676 17.5575V16.8024H1.64012C1.71878 17.0226 1.82891 17.2232 1.9705 17.4041C2.11209 17.5851 2.27335 17.7463 2.45428 17.8879C2.6352 18.0295 2.83972 18.1318 3.06785 18.1947C3.29597 18.2576 3.53196 18.297 3.77581 18.3127ZM9.23894 19.1032V19.115L9.25074 19.1386V19.1268L9.23894 19.1032ZM19.469 17.5575V7.74041H10.4071V17.5575C10.4071 17.8722 10.4661 18.1672 10.5841 18.4425C10.7021 18.7178 10.8633 18.9577 11.0678 19.1622C11.2724 19.3668 11.5123 19.528 11.7876 19.646C12.0629 19.764 12.3579 19.823 12.6726 19.823H17.2035C17.5182 19.823 17.8132 19.764 18.0885 19.646C18.3638 19.528 18.6037 19.3668 18.8083 19.1622C19.0128 18.9577 19.174 18.7178 19.292 18.4425C19.41 18.1672 19.469 17.8722 19.469 17.5575ZM22.4897 14.5369V10.0059C22.4897 9.80138 22.4149 9.62439 22.2655 9.47493C22.116 9.32547 21.939 9.25074 21.7345 9.25074H20.9794V15.292H21.7345C21.939 15.292 22.116 15.2173 22.2655 15.0678C22.4149 14.9184 22.4897 14.7414 22.4897 14.5369Z" fill="#023047"/>
</svg>
